<svg width="71" height="71" viewBox="0 0 71 71" fill="none" xmlns="http://www.w3.org/2000/svg">
<mask id="mask0_5_30190" style="mask-type:alpha" maskUnits="userSpaceOnUse" x="0" y="0" width="71" height="71">
<rect width="71" height="71" fill="#D9D9D9"/>
</mask>
<g mask="url(#mask0_5_30190)">
<path d="M32.5417 41.4167H38.4583V32.5417H47.3333V26.6251H38.4583V17.7501H32.5417V26.6251H23.6667V32.5417H32.5417V41.4167ZM5.91666 65.0834V11.8334C5.91666 10.2063 6.49649 8.81296 7.65616 7.65329C8.81385 6.49559 10.2062 5.91675 11.8333 5.91675H59.1667C60.7937 5.91675 62.1871 6.49559 63.3468 7.65329C64.5045 8.81296 65.0833 10.2063 65.0833 11.8334V47.3334C65.0833 48.9605 64.5045 50.3539 63.3468 51.5135C62.1871 52.6712 60.7937 53.2501 59.1667 53.2501H17.75L5.91666 65.0834ZM11.8333 50.8095L15.3094 47.3334H59.1667V11.8334H11.8333V50.8095Z" fill="#F5F5F5"/>
</g>
</svg>
