<svg width="30" height="36" viewBox="0 0 30 36" fill="none" xmlns="http://www.w3.org/2000/svg">
<path d="M9.33552 5.64648H5.737C4.78262 5.64648 3.86732 6.01481 3.19247 6.67044C2.51762 7.32607 2.13849 8.2153 2.13849 9.1425V30.1186C2.13849 31.0458 2.51762 31.935 3.19247 32.5907C3.86732 33.2463 4.78262 33.6146 5.737 33.6146H23.7296C24.684 33.6146 25.5993 33.2463 26.2741 32.5907C26.949 31.935 27.3281 31.0458 27.3281 30.1186V9.1425C27.3281 8.2153 26.949 7.32607 26.2741 6.67044C25.5993 6.01481 24.684 5.64648 23.7296 5.64648H20.1311" stroke="#245C6E" stroke-width="3.47443" stroke-linecap="round" stroke-linejoin="round"/>
<path d="M16.5327 2.15045H12.9342C10.9468 2.15045 9.33569 3.71567 9.33569 5.64647C9.33569 7.57727 10.9468 9.14249 12.9342 9.14249H16.5327C18.5201 9.14249 20.1312 7.57727 20.1312 5.64647C20.1312 3.71567 18.5201 2.15045 16.5327 2.15045Z" stroke="#245C6E" stroke-width="3.47443" stroke-linecap="round" stroke-linejoin="round"/>
<path d="M16.5327 24.8746H20.1312M9.33569 17.8825H9.35369H9.33569ZM16.5327 17.8825H20.1312H16.5327ZM9.33569 24.8746H9.35369H9.33569Z" stroke="#245C6E" stroke-width="3.47443" stroke-linecap="round" stroke-linejoin="round"/>
</svg>
