<svg width="113" height="75" viewBox="0 0 113 75" fill="none" xmlns="http://www.w3.org/2000/svg">
<path d="M31.2963 12.8927C31.2963 7.50714 35.6621 3.14131 41.0476 3.14131H50.0391C55.4246 3.14131 59.7905 7.50714 59.7905 12.8927V20.5544H31.2963V12.8927Z" fill="#245C6E"/>
<path d="M31.6055 20.5544C24.9641 20.5544 21.7981 23.4566 21.7981 27.2294V54.2318C21.7981 59.5211 25.443 61.1849 29.9393 61.1849H54.1676C54.1761 61.185 54.1847 61.185 54.1933 61.185H66.5747C68.0734 61.185 69.2884 59.7558 69.2884 57.9926V46.9643C69.2884 45.2012 68.0734 43.7719 66.5747 43.7719H62.9564V27.2294C62.9564 21.9401 61.3734 20.5544 56.8771 20.5544H31.6055Z" fill="#245C6E"/>
<path fill-rule="evenodd" clip-rule="evenodd" d="M31.2962 20.5544L56.6243 20.5544C59.7904 20.5544 62.9564 23.4566 62.9564 26.3588V37.9675L47.1263 37.9675V40.8697L62.9564 40.8697V43.7719L47.1263 43.7719V46.6741H62.9564V51.0274C62.9564 51.8288 63.6651 52.4785 64.5394 52.4785C65.4137 52.4785 66.1224 51.8288 66.1224 51.0274V46.6741H69.2886V58.2828H56.6241V61.185L94.6164 61.185V58.2828H91.4506V43.7719C91.4506 37.9675 88.2846 35.0654 81.9525 35.0654H72.4543C70.7059 35.0655 69.2886 36.3648 69.2886 37.9675V43.7719H66.1224V26.3588C66.1224 20.5544 62.9564 17.6522 56.6243 17.6522H31.2962C24.9641 17.6522 21.7981 20.5544 21.7981 26.3588L21.7981 58.2828C20.0496 58.2828 18.6321 59.5822 18.6321 61.185H47.1263V58.2828H24.9641V46.6741H43.9603V43.7719L24.9641 43.7719V40.8697L43.9603 40.8697V37.9675L24.9641 37.9675L24.9641 26.3588C24.9641 23.4566 28.1301 20.5544 31.2962 20.5544ZM88.2846 49.5763V43.7719C88.2846 40.8697 85.1185 37.9675 81.9525 37.9675H72.4546V58.2828H88.2846V52.4785H78.7865C78.7865 50.8756 80.204 49.5763 81.9525 49.5763H88.2846Z" fill="white"/>
<path d="M53.4583 58.2828H50.2923V61.185H53.4583V58.2828Z" fill="white"/>
<path d="M43.9604 0.23912H47.1264V6.04349H43.9604V0.23912Z" fill="white"/>
<path d="M40.7943 8.94568C39.0458 8.94568 37.6283 10.245 37.6283 11.8479V20.5544H40.7943V11.8479H50.2924V20.5544H53.4584V11.8479C53.4584 10.245 52.0409 8.94568 50.2924 8.94568H40.7943Z" fill="white"/>
<path d="M31.2963 3.14131H28.1302V6.04349H31.2963V8.94568H34.4623V6.04349H31.2963V3.14131Z" fill="white"/>
<path d="M59.7905 6.04349H56.6244V8.94568H59.7905V6.04349Z" fill="white"/>
<path d="M59.7905 6.04349H62.9565V3.14131H59.7905V6.04349Z" fill="white"/>
<path d="M34.4623 14.7501V11.8479H28.1302V14.7501H34.4623Z" fill="white"/>
<path d="M62.9565 11.8479V14.7501H56.6244V11.8479H62.9565Z" fill="white"/>
<path d="M32.879 69.8916C37.2504 69.8916 40.7941 66.6432 40.7941 62.6361C40.7941 58.629 37.2504 55.3806 32.879 55.3806C28.5077 55.3806 24.964 58.629 24.964 62.6361C24.964 66.6432 28.5077 69.8916 32.879 69.8916Z" fill="white"/>
<path d="M74.0373 69.8916C78.4087 69.8916 81.9524 66.6432 81.9524 62.6361C81.9524 58.629 78.4087 55.3806 74.0373 55.3806C69.666 55.3806 66.1223 58.629 66.1223 62.6361C66.1223 66.6432 69.666 69.8916 74.0373 69.8916Z" fill="white"/>
<path d="M32.8792 66.9894C35.502 66.9894 37.6282 65.0404 37.6282 62.6361C37.6282 60.2319 35.502 58.2829 32.8792 58.2829C30.2563 58.2829 28.1301 60.2319 28.1301 62.6361C28.1301 65.0404 30.2563 66.9894 32.8792 66.9894Z" fill="#245C6E"/>
<path d="M74.0374 66.9894C76.6603 66.9894 78.7865 65.0404 78.7865 62.6361C78.7865 60.2319 76.6603 58.2829 74.0374 58.2829C71.4146 58.2829 69.2884 60.2319 69.2884 62.6361C69.2884 65.0404 71.4146 66.9894 74.0374 66.9894Z" fill="#245C6E"/>
<path d="M40.7944 37.9675V35.0654H50.2925V37.9675L53.4585 37.9675V46.6741H50.2925V49.5763H40.7944V46.6741L40.7944 43.7719H43.9604V46.6741H47.1264V43.7719H50.2925V40.8697H47.1264V37.9675H43.9604V40.8697H40.7944V46.6741L37.6282 46.6735V37.967L40.7944 37.9675Z" fill="white"/>
</svg>
